<svg width="57" height="24" viewBox="0 0 57 24" fill="none" xmlns="http://www.w3.org/2000/svg">
<g id="Group 85">
<path id="Vector" d="M55.9351 14.0621C54.33 11.9023 51.4434 11.2106 49.1 9.86793C47.803 9.12571 46.6126 8.11892 45.9372 6.7943C45.2609 5.46967 45.1753 3.7938 45.971 2.53689C46.9335 1.01723 49.0189 0.431219 50.7653 0.903461C51.8189 1.18789 52.744 1.79828 53.506 2.58024C53.7439 2.83848 54.4065 3.58883 54.7529 4.30306H56.0025C56.0025 4.30306 55.2688 2.86647 53.9271 1.82176C53.897 1.79828 53.8733 1.76939 53.8177 1.73056C53.7585 1.68632 53.691 1.6493 53.6291 1.60686C53.5024 1.52108 53.3784 1.43259 53.2463 1.35584C53.2326 1.34771 53.2171 1.3432 53.2034 1.33507C53.1843 1.32423 53.1688 1.31159 53.1496 1.30076C52.95 1.19331 52.8051 1.1283 52.6903 1.08857C51.6539 0.61542 50.4891 0.37343 49.3534 0.363498C48.9715 0.359886 48.5896 0.385168 48.2122 0.440248C46.6691 0.666888 45.1807 1.44433 44.2647 2.69491C43.582 3.62766 43.2411 4.78253 43.2038 5.93379C43.1655 7.09408 43.4344 8.27874 44.0733 9.25122C44.7605 10.2959 45.8242 11.0363 46.8988 11.6856C48.5376 12.6752 50.2621 13.5167 51.9009 14.5046C53.1141 15.236 54.3409 16.1227 54.8595 17.4319C55.2323 18.3719 55.1849 19.4527 54.8021 20.3882C54.6836 20.6789 54.5287 20.9498 54.3555 21.2072C54.062 21.5828 52.5791 23.3092 50.0789 23.3815C48.9296 23.4149 47.8258 22.9002 46.9098 22.2889C46.753 22.186 46.5962 22.0821 46.4504 21.9692C46.3902 21.9241 46.3346 21.879 46.2772 21.8329C45.4997 21.1927 44.9027 20.4478 44.4743 19.822H43.253C44.2902 21.4293 45.8506 22.7133 47.6699 23.3508C47.6699 23.3508 47.7173 23.3634 47.7848 23.3779C48.0035 23.4492 48.2214 23.5223 48.4465 23.5747C51.0223 24.1697 54.0073 23.3444 55.6799 21.2568C57.2813 19.2568 57.4964 16.1588 55.936 14.0612L55.9351 14.0621Z" fill="#9F8B7B"/>
<path id="Vector_2" d="M5.89997 9.86779C4.60293 9.12558 3.41252 8.1188 2.73711 6.7942C2.06079 5.46959 1.97511 3.79375 2.77084 2.53686C3.73337 1.01813 5.81885 0.432121 7.56617 0.904355C8.61985 1.18878 9.5441 1.79916 10.307 2.58111C10.5449 2.83934 11.2076 3.58968 11.5539 4.3039H12.8036C12.8036 4.3039 12.0698 2.86734 10.7281 1.82264C10.698 1.79916 10.6743 1.77027 10.6187 1.73144C10.5595 1.6872 10.492 1.65018 10.4301 1.60774C10.3043 1.52196 10.1794 1.43348 10.0472 1.35673C10.0336 1.3486 10.0181 1.34408 10.0044 1.33596C9.98617 1.32512 9.96976 1.31248 9.95062 1.30165C9.75191 1.1942 9.60608 1.12919 9.49123 1.08946C8.45396 0.615416 7.28908 0.37343 6.15337 0.363498C5.77236 0.359886 5.38954 0.385168 5.01218 0.440247C3.46995 0.666884 1.98058 1.44431 1.06545 2.69578C0.38183 3.62851 0.0418457 4.78336 0.00356325 5.9346C-0.0347192 7.09488 0.234169 8.27953 0.873122 9.25199C1.56038 10.2967 2.62409 11.0371 3.69873 11.6863C5.33758 12.6759 7.06212 13.5175 8.70188 14.5053C9.91416 15.2366 11.1419 16.1233 11.6606 17.4326C12.0325 18.3725 11.986 19.4533 11.6031 20.3888C11.4837 20.6795 11.3297 20.9504 11.1565 21.2077C10.863 21.5834 9.38003 23.3098 6.87982 23.382C5.73044 23.4154 4.62662 22.9007 3.71058 22.2895C3.5538 22.1865 3.39703 22.0827 3.25119 21.9698C3.19103 21.9247 3.13634 21.8795 3.07801 21.8335C2.30051 21.1933 1.70349 20.4484 1.27509 19.8226H0.0527835C1.09006 21.4299 2.65052 22.7138 4.46985 23.3513C4.46985 23.3513 4.51725 23.3631 4.5847 23.3784C4.80345 23.4497 5.0213 23.5229 5.24644 23.5743C7.8223 24.1703 10.8074 23.3441 12.48 21.2565C14.0815 19.2565 14.2957 16.1585 12.7361 14.061C11.1301 11.9012 8.24432 11.2095 5.90088 9.86689L5.89997 9.86779Z" fill="#9F8B7B"/>
<path id="Vector_3" d="M20.9292 12.7117V23.7631H23.3998C23.3998 23.7631 23.3835 12.7117 23.3998 12.7117C23.4161 12.7117 16.2652 0.363159 16.2652 0.363159H13.7998L20.9292 12.7126V12.7117Z" fill="#9F8B7B"/>
<path id="Vector_4" d="M36.7216 14.3385C36.037 13.2268 35.5612 12.4559 35.5167 12.3836C35.5649 12.3764 35.6175 12.3673 35.6647 12.3592C35.6929 12.3547 35.7292 12.3484 35.7728 12.3402C35.7819 12.3384 35.7882 12.3375 35.7891 12.3375C36.5609 12.1947 39.3084 11.403 40.2672 8.99441C40.9201 7.35405 40.8383 5.53021 40.0475 3.96938C39.7197 3.32317 39.2894 2.72306 38.7355 2.25038C38.1553 1.75511 37.4435 1.41348 36.7443 1.11704C35.5631 0.615437 34.291 0.469024 33.018 0.41299C31.8131 0.359667 30.6845 0.36057 29.6258 0.365089H27V23.7631H29.6258V12.6475C29.91 12.6321 30.1198 12.6177 30.4512 12.605C30.8725 12.587 32.4024 12.5924 33.1034 12.5951L39.9785 23.7622H42.5998C42.6307 23.7622 38.7255 17.5939 36.7198 14.3376L36.7216 14.3385ZM35.3924 11.1978C34.9257 11.487 34.4081 11.6723 33.8733 11.7925C33.8415 11.7998 33.8098 11.8079 33.7771 11.8151C32.0374 12.2589 30.473 12.1025 29.9754 12.0465C29.9346 12.042 29.8991 12.0375 29.8646 12.0338C29.8211 12.0284 29.7856 12.0239 29.7539 12.0194C29.7266 12.0158 29.6958 12.0112 29.6776 12.0085C29.6458 12.004 29.6277 12.0013 29.6277 12.0013V1.07185H32.0883C32.0883 1.07185 32.11 1.07185 32.1418 1.07185H32.6231C32.6231 1.07185 32.7883 1.06823 33.077 1.08992C33.61 1.12969 34.5389 1.26526 35.4605 1.68371C35.5485 1.72709 35.6366 1.77047 35.7219 1.81747C35.859 1.88796 35.9934 1.96479 36.1269 2.04974C36.3484 2.19796 36.5582 2.36155 36.7543 2.53778C36.797 2.57665 36.8442 2.60647 36.886 2.64714C37.8902 3.60425 38.5121 4.91925 38.5121 6.37254C38.5121 6.67259 38.474 6.9609 38.4195 7.24469C38.3805 7.54384 38.2842 7.88366 38.1081 8.28133C38.1063 8.28585 38.1035 8.28946 38.1008 8.29398C38.0091 8.50456 37.9056 8.70972 37.7885 8.90765C37.7676 8.9438 37.7376 8.97453 37.7158 9.00978C37.6078 9.18602 37.4889 9.34418 37.369 9.50144C37.3409 9.53668 37.3209 9.57555 37.2927 9.60989C37.2837 9.62074 37.2737 9.62796 37.2646 9.63881C37.0794 9.86656 36.8814 10.0726 36.6744 10.2615C36.6671 10.2678 36.6608 10.2769 36.6535 10.2832C36.629 10.3058 36.6036 10.3284 36.5782 10.3501C36.4184 10.492 36.2477 10.6185 36.0742 10.7423C36.0343 10.7703 35.9962 10.802 35.9553 10.8291C35.8863 10.8743 35.8182 10.9213 35.7483 10.9638C35.6548 11.0252 35.5603 11.0867 35.4659 11.1472C35.4405 11.1635 35.416 11.1807 35.3905 11.196L35.3924 11.1978Z" fill="#9F8B7B"/>
</g>
</svg>
