<svg width="276" height="198" viewBox="0 0 276 198" fill="none" xmlns="http://www.w3.org/2000/svg">
<mask id="mask0_2971_2065" style="mask-type:alpha" maskUnits="userSpaceOnUse" x="0" y="0" width="276" height="198">
<rect width="275.647" height="198" rx="7.76471" fill="#FFFEFE"/>
</mask>
<g mask="url(#mask0_2971_2065)">
<path d="M3.88281 89.2941L271.765 89.2941" stroke="#DDD3CA" stroke-width="7.76471" stroke-linecap="square"/>
<rect x="-7.24683" y="100.165" width="49.4353" height="23.5529" rx="8.54118" fill="#EAE1D8" stroke="#DDD3CA" stroke-width="3.62353"/>
<rect x="17.343" y="132.518" width="39.0824" height="19.6706" rx="8.54118" fill="#F0E9E2" stroke="#EAE1D8" stroke-width="3.62353"/>
<rect x="34.1633" y="183.865" width="39.0824" height="14.9805" rx="7.49025" stroke="#E5DFD7" stroke-width="3.62353"/>
<rect x="-2.07105" y="161.205" width="39.0824" height="14.9805" rx="7.49025" stroke="#E5DFD7" stroke-width="3.62353"/>
<rect x="-33.1296" y="132.518" width="39.0824" height="19.6706" rx="8.54118" fill="#F0E9E2" stroke="#EAE1D8" stroke-width="3.62353"/>
<rect x="-16.3054" y="183.865" width="39.0824" height="14.9805" rx="7.49025" stroke="#E5DFD7" stroke-width="3.62353"/>
<rect x="116.988" y="100.165" width="49.4353" height="23.5529" rx="8.54118" fill="#EAE1D8" stroke="#DDD3CA" stroke-width="3.62353"/>
<rect x="118.281" y="132.518" width="39.0824" height="19.6706" rx="8.54118" fill="#F0E9E2" stroke="#EAE1D8" stroke-width="3.62353"/>
<rect x="135.105" y="183.865" width="39.0824" height="14.9805" rx="7.49025" stroke="#E5DFD7" stroke-width="3.62353"/>
<rect x="98.8704" y="161.205" width="39.0824" height="14.9805" rx="7.49025" stroke="#E5DFD7" stroke-width="3.62353"/>
<rect x="241.222" y="100.165" width="49.4353" height="23.5529" rx="8.54118" fill="#EAE1D8" stroke="#DDD3CA" stroke-width="3.62353"/>
<rect x="219.222" y="132.518" width="39.0824" height="19.6706" rx="8.54118" fill="#F0E9E2" stroke="#EAE1D8" stroke-width="3.62353"/>
<rect x="236.046" y="183.865" width="39.0824" height="14.9805" rx="7.49025" stroke="#E5DFD7" stroke-width="3.62353"/>
<rect x="199.812" y="161.205" width="39.0824" height="14.9805" rx="7.49025" stroke="#E5DFD7" stroke-width="3.62353"/>
<rect x="54.8704" y="100.165" width="49.4353" height="23.5529" rx="8.54118" fill="#EAE1D8" stroke="#DDD3CA" stroke-width="3.62353"/>
<rect x="67.8118" y="132.518" width="39.0824" height="19.6706" rx="8.54118" fill="#F0E9E2" stroke="#EAE1D8" stroke-width="3.62353"/>
<rect x="84.636" y="183.865" width="39.0824" height="14.9805" rx="7.49025" stroke="#E5DFD7" stroke-width="3.62353"/>
<rect x="48.4016" y="161.205" width="39.0824" height="14.9805" rx="7.49025" stroke="#E5DFD7" stroke-width="3.62353"/>
<rect x="179.105" y="100.165" width="49.4353" height="23.5529" rx="8.54118" fill="#EAE1D8" stroke="#DDD3CA" stroke-width="3.62353"/>
<rect x="168.753" y="132.518" width="39.0824" height="19.6706" rx="8.54118" fill="#F0E9E2" stroke="#EAE1D8" stroke-width="3.62353"/>
<rect x="185.577" y="183.865" width="39.0824" height="14.9805" rx="7.49025" stroke="#E5DFD7" stroke-width="3.62353"/>
<rect x="149.343" y="161.205" width="39.0824" height="14.9805" rx="7.49025" stroke="#E5DFD7" stroke-width="3.62353"/>
<rect x="269.695" y="132.518" width="39.0824" height="19.6706" rx="8.54118" fill="#F0E9E2" stroke="#EAE1D8" stroke-width="3.62353"/>
<rect x="250.281" y="161.205" width="39.0824" height="14.9805" rx="7.49025" stroke="#E5DFD7" stroke-width="3.62353"/>
</g>
</svg>
