<svg width="151" height="108" viewBox="0 0 151 108" fill="none" xmlns="http://www.w3.org/2000/svg">
<path d="M30.2148 58.0945C30.2148 59.2468 29.9072 60.3601 29.292 61.4343C28.6768 62.5085 27.7686 63.3826 26.5674 64.0564C25.376 64.7205 23.9551 65.0525 22.3047 65.0525C21.2695 65.0525 20.3955 64.9109 19.6826 64.6277C18.9697 64.3542 18.4326 63.9929 18.0713 63.5437C17.71 63.0847 17.5293 62.6257 17.5293 62.1667C17.5293 61.6785 17.6807 61.2927 17.9834 61.0095C18.2959 60.7263 18.6328 60.5847 18.9941 60.5847C19.3457 60.5847 19.6094 60.6726 19.7852 60.8484C19.9609 61.0144 20.1465 61.283 20.3418 61.6541C20.7617 62.3962 21.1914 62.9138 21.6309 63.2068C22.0801 63.49 22.583 63.6316 23.1396 63.6316C24.0967 63.6316 24.8096 63.3582 25.2783 62.8113C25.7471 62.2546 26.0352 61.6394 26.1426 60.9656C26.2598 60.282 26.3184 59.5251 26.3184 58.6951C26.3184 56.9373 26.1035 55.5652 25.6738 54.5789C25.2441 53.5828 24.4678 53.0847 23.3447 53.0847C22.9053 53.0847 22.4414 53.2263 21.9531 53.5095C21.4746 53.7927 21.0791 54.3298 20.7666 55.1208H19.2139L19.4775 45.3357H28.4717L27.8418 46.6248C27.5781 47.1814 27.3633 47.5183 27.1973 47.6355C27.0312 47.7429 26.748 47.7966 26.3477 47.7966H20.7666L20.6494 53.0554C21.0498 52.7234 21.3818 52.4744 21.6455 52.3083C21.9189 52.1326 22.2656 51.9812 22.6855 51.8542C23.1152 51.7273 23.6279 51.6638 24.2236 51.6638C25.1221 51.6638 25.9521 51.8494 26.7139 52.2205C27.4756 52.5916 28.1104 53.0798 28.6182 53.6853C29.1357 54.2908 29.5312 54.9744 29.8047 55.7361C30.0781 56.488 30.2148 57.2742 30.2148 58.0945ZM45.4286 55.1501C45.4286 56.5564 45.3407 57.7429 45.1649 58.7097C44.9989 59.6667 44.7499 60.4822 44.4178 61.156C44.0956 61.8201 43.7001 62.4158 43.2313 62.9431C41.9813 64.3494 40.5018 65.0525 38.7928 65.0525C38.0604 65.0525 37.3085 64.8962 36.537 64.5837C35.7655 64.2712 35.0477 63.7537 34.3836 63.031C33.7196 62.2986 33.1825 61.3074 32.7723 60.0574C32.3622 58.7976 32.1571 57.2791 32.1571 55.5017C32.1571 53.9001 32.245 52.5623 32.4208 51.488C32.6063 50.4041 32.8211 49.5935 33.0653 49.0564C33.3094 48.5193 33.617 47.9822 33.9881 47.4451C35.2088 45.7361 36.8104 44.8816 38.7928 44.8816C40.8241 44.8816 42.4256 45.7361 43.5975 47.4451C44.1346 48.1775 44.5741 49.1052 44.9159 50.2283C45.2577 51.3513 45.4286 52.9919 45.4286 55.1501ZM41.4881 54.9744V53.0408C41.4881 51.5955 41.4295 50.4138 41.3124 49.4958C41.2049 48.5779 40.951 47.8162 40.5506 47.2107C40.16 46.6052 39.5741 46.3025 38.7928 46.3025C37.9628 46.3025 37.3524 46.6296 36.9618 47.2839C36.5809 47.9382 36.3417 48.8464 36.244 50.0085C36.1463 51.1707 36.0975 52.8259 36.0975 54.9744C36.0975 57.0544 36.1463 58.6804 36.244 59.8523C36.3417 61.0144 36.5809 61.9373 36.9618 62.6208C37.3524 63.2947 37.9628 63.6316 38.7928 63.6316C39.4081 63.6316 39.9061 63.4363 40.287 63.0457C40.6678 62.6453 40.9413 62.1033 41.1073 61.4197C41.2733 60.7361 41.3758 60.0134 41.4149 59.2517C41.4637 58.49 41.4881 57.4451 41.4881 56.1169V54.9744ZM69.6804 59.7058C69.6804 61.073 69.4607 62.1375 69.0212 62.8992C68.5818 63.6609 68.0593 64.1736 67.4538 64.4373C66.8581 64.7009 66.2429 64.8328 65.6081 64.8328C65.0026 64.8328 64.3923 64.696 63.7771 64.4226C63.1618 64.1394 62.6296 63.6316 62.1804 62.8992C61.7409 62.157 61.5212 61.1511 61.5212 59.8816C61.5212 59.3542 61.5505 58.822 61.6091 58.2849C61.6775 57.7478 61.8386 57.1716 62.0925 56.5564C62.3562 55.9412 62.7663 55.4236 63.323 55.0037C63.8894 54.5837 64.6511 54.3738 65.6081 54.3738C67.3464 54.3738 68.4597 54.9646 68.948 56.1462C69.4362 57.3279 69.6804 58.5144 69.6804 59.7058ZM64.8903 44.6472L54.2702 65.4333H52.5564L63.1765 44.6472H64.8903ZM56.365 50.2283C56.365 51.5955 56.1452 52.6599 55.7058 53.4216C55.2663 54.1833 54.7439 54.696 54.1384 54.9597C53.5427 55.2234 52.9275 55.3552 52.2927 55.3552C51.6775 55.3552 51.0622 55.2185 50.447 54.9451C49.8415 54.6619 49.3142 54.1541 48.865 53.4216C48.4255 52.6794 48.2058 51.6736 48.2058 50.4041C48.2058 49.0955 48.4499 47.8503 48.9382 46.6687C49.4265 45.4773 50.5446 44.8816 52.2927 44.8816C54.031 44.8816 55.1443 45.4773 55.6325 46.6687C56.1208 47.8503 56.365 49.0369 56.365 50.2283ZM67.0437 59.6472C67.0437 58.573 67.0046 57.7185 66.9265 57.0837C66.8581 56.4392 66.7214 55.9753 66.5163 55.6921C66.321 55.4089 66.0183 55.2673 65.6081 55.2673C65.2468 55.2673 64.9587 55.3943 64.7439 55.6482C64.5388 55.9021 64.3923 56.3464 64.3044 56.9812C64.2165 57.6062 64.1726 58.4753 64.1726 59.5886C64.1726 61.0828 64.2556 62.1814 64.4216 62.8845C64.5876 63.5876 64.9831 63.9392 65.6081 63.9392C66.028 63.9392 66.3405 63.7781 66.5456 63.4558C66.7605 63.1238 66.8972 62.6599 66.9558 62.0642C67.0144 61.4685 67.0437 60.6628 67.0437 59.6472ZM53.7282 50.1697C53.7282 49.0955 53.6892 48.241 53.611 47.6062C53.5427 46.9617 53.406 46.4978 53.2009 46.2146C53.0056 45.9314 52.7028 45.7898 52.2927 45.7898C51.9314 45.7898 51.6433 45.9167 51.4284 46.1707C51.2234 46.4148 51.072 46.8494 50.9743 47.4744C50.8864 48.0896 50.8425 48.9685 50.8425 50.1111C50.8425 51.1365 50.8669 51.9373 50.9157 52.5134C50.9743 53.0798 51.1062 53.5486 51.3112 53.9197C51.5261 54.281 51.8532 54.4617 52.2927 54.4617C52.7126 54.4617 53.0251 54.3005 53.2302 53.9783C53.445 53.6462 53.5818 53.1824 53.6403 52.5867C53.6989 51.991 53.7282 51.1853 53.7282 50.1697Z" fill="#BCAB9D" fill-opacity="0.65"/>
<path d="M12.2276 95.7077C12.2276 99.7111 9.86751 102.211 6.63329 102.211C3.38159 102.211 1.03896 99.7111 1.03896 95.7077C1.03896 91.7043 3.38159 89.2043 6.63329 89.2043C9.86751 89.2043 12.2276 91.7043 12.2276 95.7077ZM10.7067 95.7077C10.7067 92.4385 8.92347 90.6728 6.63329 90.6728C4.34311 90.6728 2.55992 92.4385 2.55992 95.7077C2.55992 98.9769 4.34311 100.743 6.63329 100.743C8.92347 100.743 10.7067 98.9769 10.7067 95.7077ZM14.3394 102.036V92.5434H15.8429V102.036H14.3394ZM15.0911 90.97C14.5142 90.97 14.0422 90.5329 14.0422 89.9735C14.0422 89.4141 14.5142 88.977 15.0911 88.977C15.668 88.977 16.1576 89.4141 16.1576 89.9735C16.1576 90.5329 15.668 90.97 15.0911 90.97ZM19.7378 89.3791V102.036H18.2344V89.3791H19.7378ZM27.5663 95.935V97.3161H22.0244V95.935H27.5663ZM31.5312 102.036L28.0697 89.3791H29.6606L32.3004 99.6237H32.4228L35.0976 89.3791H36.8633L39.5556 99.6237H39.6605L42.3003 89.3791H43.8912L40.4297 102.036H38.8038L36.0416 92.0189H35.9368L33.1571 102.036H31.5312ZM44.01 99.344C44.01 97.1587 45.933 96.6692 47.5764 96.5468C48.1795 96.5031 49.7179 96.4245 50.1463 96.407V95.6378C50.1463 94.4315 49.4295 93.7322 47.9959 93.7322C46.7897 93.7322 46.0729 94.2916 45.8631 95.0084H44.2897C44.482 93.4875 45.968 92.421 48.0659 92.421C49.3071 92.421 51.6323 92.7882 51.6323 95.7776V102.036H50.1463V100.743H50.0763C49.7617 101.389 48.8875 102.264 47.2442 102.264C45.4435 102.264 44.01 101.197 44.01 99.344ZM45.5135 99.4139C45.5135 100.41 46.3526 100.917 47.5064 100.917C49.2022 100.917 50.1463 99.7811 50.1463 98.5923V97.6308L47.7512 97.8056C46.3876 97.893 45.5135 98.3825 45.5135 99.4139ZM58.1845 92.5434V93.8021H56.1916V99.309C56.1916 100.533 56.7859 100.725 57.4328 100.725C57.7125 100.725 58.0971 100.708 58.3244 100.69V102.089C58.0971 102.124 57.7125 102.159 57.2755 102.159C56.0167 102.159 54.6706 101.372 54.6706 99.6937V93.8021H53.237V92.5434H54.6706V90.2707H56.1916V92.5434H58.1845ZM64.0026 102.229C61.2578 102.229 59.5621 100.288 59.5621 97.3685C59.5621 94.449 61.2753 92.421 63.8627 92.421C65.8557 92.421 67.9535 93.6448 67.9535 97.1587V97.7881H61.0655C61.1355 99.7986 62.3068 100.9 64.0026 100.9C65.1389 100.9 65.8557 100.41 66.2053 99.816H67.8137C67.3591 101.25 65.9606 102.229 64.0026 102.229ZM61.083 96.5119H66.4326C66.4326 94.921 65.4186 93.7497 63.8627 93.7497C62.2194 93.7497 61.1704 95.0434 61.083 96.5119ZM69.908 102.036V92.5434H71.359V93.9944H71.4639C71.8136 93.0329 72.7926 92.3861 73.9114 92.3861C74.1387 92.3861 74.5233 92.4035 74.6981 92.421V93.942C74.5932 93.907 74.1737 93.8371 73.789 93.8371C72.4254 93.8371 71.4115 94.7811 71.4115 96.0573V102.036H69.908ZM80.8447 102.036V89.3791H85.2852C87.9425 89.3791 89.1838 90.8651 89.1838 92.7357C89.1838 94.3616 88.2222 95.0958 87.1209 95.393V95.5154C88.2922 95.5853 89.6908 96.6692 89.6908 98.6797C89.6908 100.585 88.432 102.036 85.4426 102.036H80.8447ZM85.4251 100.638C87.4006 100.638 88.1698 99.7636 88.1698 98.6622C88.1698 97.3685 87.1383 96.2846 85.5125 96.2846H82.4181V100.638H85.4251ZM85.2328 94.921C86.5964 94.921 87.6803 94.0818 87.6803 92.7532C87.6803 91.6518 86.946 90.7777 85.2852 90.7777H82.4181V94.921H85.2328ZM91.2781 99.344C91.2781 97.1587 93.2011 96.6692 94.8445 96.5468C95.4476 96.5031 96.986 96.4245 97.4143 96.407V95.6378C97.4143 94.4315 96.6976 93.7322 95.264 93.7322C94.0577 93.7322 93.341 94.2916 93.1312 95.0084H91.5578C91.7501 93.4875 93.2361 92.421 95.334 92.421C96.5752 92.421 98.9003 92.7882 98.9003 95.7776V102.036H97.4143V100.743H97.3444C97.0297 101.389 96.1556 102.264 94.5123 102.264C92.7116 102.264 91.2781 101.197 91.2781 99.344ZM92.7815 99.4139C92.7815 100.41 93.6207 100.917 94.7745 100.917C96.4703 100.917 97.4143 99.7811 97.4143 98.5923V97.6308L95.0193 97.8056C93.6557 97.893 92.7815 98.3825 92.7815 99.4139ZM102.813 89.3791V102.036H101.309V89.3791H102.813ZM104.75 99.344C104.75 97.1587 106.673 96.6692 108.316 96.5468C108.919 96.5031 110.458 96.4245 110.886 96.407V95.6378C110.886 94.4315 110.169 93.7322 108.736 93.7322C107.529 93.7322 106.813 94.2916 106.603 95.0084H105.029C105.222 93.4875 106.708 92.421 108.806 92.421C110.047 92.421 112.372 92.7882 112.372 95.7776V102.036H110.886V100.743H110.816C110.501 101.389 109.627 102.264 107.984 102.264C106.183 102.264 104.75 101.197 104.75 99.344ZM106.253 99.4139C106.253 100.41 107.092 100.917 108.246 100.917C109.942 100.917 110.886 99.7811 110.886 98.5923V97.6308L108.491 97.8056C107.127 97.893 106.253 98.3825 106.253 99.4139ZM116.284 96.3371V102.036H114.781V92.5434H116.232V94.0294H116.354C116.809 93.0679 117.683 92.421 119.134 92.421C121.057 92.421 122.333 93.5923 122.333 96.0049V102.036H120.83V96.1098C120.83 94.6413 120.026 93.7672 118.68 93.7672C117.298 93.7672 116.284 94.6937 116.284 96.3371ZM128.623 102.229C125.931 102.229 124.288 100.183 124.288 97.3336C124.288 94.449 126.001 92.421 128.588 92.421C130.616 92.421 132.12 93.6098 132.365 95.4105H130.861C130.651 94.5364 129.882 93.7497 128.623 93.7497C126.928 93.7497 125.791 95.1483 125.791 97.2811C125.791 99.4839 126.893 100.882 128.623 100.882C129.742 100.882 130.599 100.288 130.861 99.2391H132.365C132.12 100.935 130.739 102.229 128.623 102.229ZM138.2 102.229C135.455 102.229 133.76 100.288 133.76 97.3685C133.76 94.449 135.473 92.421 138.06 92.421C140.053 92.421 142.151 93.6448 142.151 97.1587V97.7881H135.263C135.333 99.7986 136.504 100.9 138.2 100.9C139.336 100.9 140.053 100.41 140.403 99.816H142.011C141.557 101.25 140.158 102.229 138.2 102.229ZM135.281 96.5119H140.63C140.63 94.921 139.616 93.7497 138.06 93.7497C136.417 93.7497 135.368 95.0434 135.281 96.5119Z" fill="#BCAB9D"/>
<rect x="85.2744" width="46" height="70.3502" fill="#D1C2B6"/>
<path d="M0.129883 70.3503L150.274 70.3503" stroke="#BCAB9D" stroke-width="2.30992"/>
</svg>
