<svg width="135" height="73" viewBox="0 0 135 73" fill="none" xmlns="http://www.w3.org/2000/svg">
<path d="M19.4512 27.4512L18.792 31.1133H17.5615C17.6104 30.8984 17.6348 30.7275 17.6348 30.6006C17.6348 30.2002 17.3906 30 16.9023 30H7.23438V28.623C8.52344 27.4219 9.78809 26.0791 11.0283 24.5947C12.2783 23.1006 13.3184 21.5576 14.1484 19.9658C14.9785 18.3643 15.3936 16.8506 15.3936 15.4248C15.3936 14.6045 15.2422 13.916 14.9395 13.3594C14.6465 12.793 14.2607 12.3779 13.7822 12.1143C13.3135 11.8408 12.8105 11.7041 12.2734 11.7041C11.7656 11.7041 11.3018 11.8262 10.8818 12.0703C10.4619 12.3047 10.1348 12.6221 9.90039 13.0225C9.66602 13.4229 9.54883 13.8428 9.54883 14.2822C9.54883 14.7998 9.74902 15.4688 10.1494 16.2891C10.1787 16.3477 10.1934 16.3965 10.1934 16.4355C10.1934 16.5137 9.98828 16.6357 9.57812 16.8018L8.62598 17.1973C8.30371 17.334 8.11328 17.4023 8.05469 17.4023C7.89844 17.4023 7.71777 17.1387 7.5127 16.6113C7.30762 16.084 7.20508 15.5078 7.20508 14.8828C7.20508 14.0137 7.4248 13.2324 7.86426 12.5391C8.31348 11.8457 8.9873 11.2988 9.88574 10.8984C10.7939 10.4883 11.8926 10.2832 13.1816 10.2832C14.7637 10.2832 16.0088 10.5908 16.917 11.2061C17.835 11.8115 18.4502 12.5049 18.7627 13.2861C19.085 14.0576 19.2461 14.7803 19.2461 15.4541C19.2461 16.8213 18.8018 18.1543 17.9131 19.4531C17.0244 20.7422 15.8086 22.1582 14.2656 23.7012C14.1875 23.7793 13.875 24.0723 13.3281 24.5801C12.791 25.0879 12.1758 25.6641 11.4824 26.3086C10.7891 26.9434 10.374 27.3242 10.2373 27.4512H19.4512ZM34.8993 20.5518C34.8993 21.958 34.8114 23.1445 34.6356 24.1113C34.4696 25.0684 34.2206 25.8838 33.8885 26.5576C33.5663 27.2217 33.1708 27.8174 32.702 28.3447C31.452 29.751 29.9725 30.4541 28.2635 30.4541C27.5311 30.4541 26.7792 30.2979 26.0077 29.9854C25.2362 29.6729 24.5184 29.1553 23.8544 28.4326C23.1903 27.7002 22.6532 26.709 22.243 25.459C21.8329 24.1992 21.6278 22.6807 21.6278 20.9033C21.6278 19.3018 21.7157 17.9639 21.8915 16.8896C22.077 15.8057 22.2919 14.9951 22.536 14.458C22.7801 13.9209 23.0878 13.3838 23.4588 12.8467C24.6795 11.1377 26.2811 10.2832 28.2635 10.2832C30.2948 10.2832 31.8963 11.1377 33.0682 12.8467C33.6053 13.5791 34.0448 14.5068 34.3866 15.6299C34.7284 16.7529 34.8993 18.3936 34.8993 20.5518ZM30.9588 20.376V18.4424C30.9588 16.9971 30.9003 15.8154 30.7831 14.8975C30.6756 13.9795 30.4217 13.2178 30.0213 12.6123C29.6307 12.0068 29.0448 11.7041 28.2635 11.7041C27.4335 11.7041 26.8231 12.0312 26.4325 12.6855C26.0516 13.3398 25.8124 14.248 25.7147 15.4102C25.617 16.5723 25.5682 18.2275 25.5682 20.376C25.5682 22.4561 25.617 24.082 25.7147 25.2539C25.8124 26.416 26.0516 27.3389 26.4325 28.0225C26.8231 28.6963 27.4335 29.0332 28.2635 29.0332C28.8788 29.0332 29.3768 28.8379 29.7577 28.4473C30.1385 28.0469 30.412 27.5049 30.578 26.8213C30.744 26.1377 30.8465 25.415 30.8856 24.6533C30.9344 23.8916 30.9588 22.8467 30.9588 21.5186V20.376ZM59.1511 25.1074C59.1511 26.4746 58.9314 27.5391 58.4919 28.3008C58.0525 29.0625 57.53 29.5752 56.9245 29.8389C56.3288 30.1025 55.7136 30.2344 55.0788 30.2344C54.4734 30.2344 53.863 30.0977 53.2478 29.8242C52.6325 29.541 52.1003 29.0332 51.6511 28.3008C51.2116 27.5586 50.9919 26.5527 50.9919 25.2832C50.9919 24.7559 51.0212 24.2236 51.0798 23.6865C51.1482 23.1494 51.3093 22.5732 51.5632 21.958C51.8269 21.3428 52.237 20.8252 52.7937 20.4053C53.3601 19.9854 54.1218 19.7754 55.0788 19.7754C56.8171 19.7754 57.9304 20.3662 58.4187 21.5479C58.9069 22.7295 59.1511 23.916 59.1511 25.1074ZM54.361 10.0488L43.7409 30.835H42.0271L52.6472 10.0488H54.361ZM45.8357 15.6299C45.8357 16.9971 45.6159 18.0615 45.1765 18.8232C44.737 19.585 44.2146 20.0977 43.6091 20.3613C43.0134 20.625 42.3982 20.7568 41.7634 20.7568C41.1482 20.7568 40.5329 20.6201 39.9177 20.3467C39.3122 20.0635 38.7849 19.5557 38.3357 18.8232C37.8962 18.0811 37.6765 17.0752 37.6765 15.8057C37.6765 14.4971 37.9206 13.252 38.4089 12.0703C38.8972 10.8789 40.0153 10.2832 41.7634 10.2832C43.5017 10.2832 44.615 10.8789 45.1032 12.0703C45.5915 13.252 45.8357 14.4385 45.8357 15.6299ZM56.5144 25.0488C56.5144 23.9746 56.4753 23.1201 56.3972 22.4854C56.3288 21.8408 56.1921 21.377 55.987 21.0938C55.7917 20.8105 55.489 20.6689 55.0788 20.6689C54.7175 20.6689 54.4294 20.7959 54.2146 21.0498C54.0095 21.3037 53.863 21.748 53.7751 22.3828C53.6872 23.0078 53.6433 23.877 53.6433 24.9902C53.6433 26.4844 53.7263 27.583 53.8923 28.2861C54.0583 28.9893 54.4538 29.3408 55.0788 29.3408C55.4987 29.3408 55.8112 29.1797 56.0163 28.8574C56.2312 28.5254 56.3679 28.0615 56.4265 27.4658C56.4851 26.8701 56.5144 26.0645 56.5144 25.0488ZM43.1989 15.5713C43.1989 14.4971 43.1599 13.6426 43.0818 13.0078C43.0134 12.3633 42.8767 11.8994 42.6716 11.6162C42.4763 11.333 42.1735 11.1914 41.7634 11.1914C41.4021 11.1914 41.114 11.3184 40.8991 11.5723C40.6941 11.8164 40.5427 12.251 40.445 12.876C40.3571 13.4912 40.3132 14.3701 40.3132 15.5127C40.3132 16.5381 40.3376 17.3389 40.3864 17.915C40.445 18.4814 40.5769 18.9502 40.7819 19.3213C40.9968 19.6826 41.3239 19.8633 41.7634 19.8633C42.1833 19.8633 42.4958 19.7021 42.7009 19.3799C42.9157 19.0479 43.0525 18.584 43.111 17.9883C43.1696 17.3926 43.1989 16.5869 43.1989 15.5713Z" fill="#BCAB9D" fill-opacity="0.65"/>
<path d="M8.30408 57.6975C8.16422 56.4562 7.02788 55.7395 5.50692 55.7395C3.82862 55.7395 2.72724 56.6136 2.72724 57.8199C2.72724 59.1485 4.21323 59.638 5.17475 59.8828L6.43348 60.2324C7.7971 60.5821 10.0173 61.3688 10.0173 63.7289C10.0173 65.7918 8.35653 67.4002 5.41951 67.4002C2.69227 67.4002 0.99649 65.9841 0.856632 63.8862H2.465C2.60486 65.3023 3.91603 65.9666 5.41951 65.9666C7.16773 65.9666 8.47891 65.075 8.47891 63.6939C8.47891 62.4701 7.30759 61.9981 5.97894 61.6135L4.42302 61.1939C2.43004 60.617 1.20628 59.6031 1.20628 57.8898C1.20628 55.757 3.11185 54.3409 5.55936 54.3409C8.00688 54.3409 9.77259 55.7744 9.84252 57.6975H8.30408ZM16.0626 67.3652C13.3179 67.3652 11.6221 65.4247 11.6221 62.5051C11.6221 59.5856 13.3354 57.5576 15.9228 57.5576C17.9158 57.5576 20.0136 58.7814 20.0136 62.2953V62.9247H13.1256C13.1955 64.9352 14.3669 66.0365 16.0626 66.0365C17.199 66.0365 17.9158 65.547 18.2654 64.9526H19.8738C19.4192 66.3862 18.0206 67.3652 16.0626 67.3652ZM13.1431 61.6485H18.4927C18.4927 60.0576 17.4787 58.8863 15.9228 58.8863C14.2794 58.8863 13.2305 60.18 13.1431 61.6485ZM23.4715 61.4737V67.1729H21.9681V57.68H23.4191V59.166H23.5415C23.996 58.2045 24.8701 57.5576 26.3212 57.5576C28.2442 57.5576 29.5204 58.7289 29.5204 61.1415V67.1729H28.0169V61.2464C28.0169 59.7779 27.2127 58.9038 25.8666 58.9038C24.4855 58.9038 23.4715 59.8303 23.4715 61.4737ZM37.209 60.145C36.9992 59.3583 36.4048 58.8338 35.286 58.8338C34.1147 58.8338 33.2755 59.4632 33.2755 60.2674C33.2755 60.8967 33.7825 61.3338 34.9014 61.596L36.3174 61.9457C38.0132 62.3478 38.8524 63.1869 38.8524 64.5156C38.8524 66.1589 37.5062 67.3652 35.1286 67.3652C32.9958 67.3652 31.7196 66.4211 31.4748 64.6904H33.0482C33.2231 65.617 33.9049 66.054 35.0937 66.054C36.4398 66.054 37.2964 65.4946 37.2964 64.603C37.2964 63.9387 36.8244 63.4841 35.7405 63.2394L34.307 62.9072C32.6462 62.5226 31.772 61.6135 31.772 60.3548C31.772 58.7289 33.1881 57.5576 35.286 57.5576C37.244 57.5576 38.4852 58.6066 38.6775 60.145H37.209ZM40.8068 67.1729V57.68H42.3103V67.1729H40.8068ZM41.5585 56.1066C40.9816 56.1066 40.5096 55.6695 40.5096 55.1101C40.5096 54.5507 40.9816 54.1136 41.5585 54.1136C42.1355 54.1136 42.625 54.5507 42.625 55.1101C42.625 55.6695 42.1355 56.1066 41.5585 56.1066ZM48.8451 57.68V58.9387H46.8521V64.4456C46.8521 65.6694 47.4465 65.8617 48.0933 65.8617C48.373 65.8617 48.7577 65.8442 48.9849 65.8267V67.2253C48.7577 67.2603 48.373 67.2953 47.936 67.2953C46.6773 67.2953 45.3311 66.5086 45.3311 64.8303V58.9387H43.8976V57.68H45.3311V55.4073H46.8521V57.68H48.8451ZM50.782 67.1729V57.68H52.2855V67.1729H50.782ZM51.5338 56.1066C50.9568 56.1066 50.4848 55.6695 50.4848 55.1101C50.4848 54.5507 50.9568 54.1136 51.5338 54.1136C52.1107 54.1136 52.6002 54.5507 52.6002 55.1101C52.6002 55.6695 52.1107 56.1066 51.5338 56.1066ZM62.4916 57.68L58.9776 67.1729H57.4217L53.9253 57.68H55.5686L58.156 65.2149H58.2609L60.8482 57.68H62.4916ZM64.1488 67.1729V57.68H65.6523V67.1729H64.1488ZM64.9005 56.1066C64.3236 56.1066 63.8516 55.6695 63.8516 55.1101C63.8516 54.5507 64.3236 54.1136 64.9005 54.1136C65.4775 54.1136 65.967 54.5507 65.967 55.1101C65.967 55.6695 65.4775 56.1066 64.9005 56.1066ZM72.1871 57.68V58.9387H70.1941V64.4456C70.1941 65.6694 70.7885 65.8617 71.4353 65.8617C71.715 65.8617 72.0997 65.8442 72.3269 65.8267V67.2253C72.0997 67.2603 71.715 67.2953 71.278 67.2953C70.0193 67.2953 68.6731 66.5086 68.6731 64.8303V58.9387H67.2396V57.68H68.6731V55.4073H70.1941V57.68H72.1871ZM75.0856 70.7393C74.7534 70.7393 74.4387 70.7218 74.2464 70.7043V69.3582C74.4037 69.3756 74.7534 69.3931 74.9807 69.3931C75.5925 69.3931 76.0995 69.3407 76.6065 67.9596L76.8862 67.2428L73.3723 57.68H75.0156L77.603 65.2149H77.7079L80.2953 57.68H81.9386L77.9177 68.5365C77.3582 70.0225 76.4317 70.7393 75.0856 70.7393ZM88.2775 67.1729V54.5157H89.8509V65.7743H95.725V67.1729H88.2775ZM101.613 67.3652C98.8682 67.3652 97.1724 65.4247 97.1724 62.5051C97.1724 59.5856 98.8857 57.5576 101.473 57.5576C103.466 57.5576 105.564 58.7814 105.564 62.2953V62.9247H98.6759C98.7458 64.9352 99.9171 66.0365 101.613 66.0365C102.749 66.0365 103.466 65.547 103.816 64.9526H105.424C104.97 66.3862 103.571 67.3652 101.613 67.3652ZM98.6934 61.6485H104.043C104.043 60.0576 103.029 58.8863 101.473 58.8863C99.8297 58.8863 98.7808 60.18 98.6934 61.6485ZM115.036 57.68L111.522 67.1729H109.966L106.469 57.68H108.113L110.7 65.2149H110.805L113.392 57.68H115.036ZM120.329 67.3652C117.585 67.3652 115.889 65.4247 115.889 62.5051C115.889 59.5856 117.602 57.5576 120.189 57.5576C122.182 57.5576 124.28 58.7814 124.28 62.2953V62.9247H117.392C117.462 64.9352 118.633 66.0365 120.329 66.0365C121.466 66.0365 122.182 65.547 122.532 64.9526H124.14C123.686 66.3862 122.287 67.3652 120.329 67.3652ZM117.41 61.6485H122.759C122.759 60.0576 121.745 58.8863 120.189 58.8863C118.546 58.8863 117.497 60.18 117.41 61.6485ZM127.738 54.5157V67.1729H126.235V54.5157H127.738Z" fill="#BCAB9D"/>
<rect x="71.3496" width="45.9557" height="35.5561" fill="#D1C2B6"/>
<path d="M0 35.5562L135 35.5563" stroke="#BCAB9D" stroke-width="2.30992"/>
</svg>
