<svg width="137" height="120" viewBox="0 0 137 120" fill="none" xmlns="http://www.w3.org/2000/svg">
<path d="M8.30408 104.703C8.16422 103.462 7.02788 102.745 5.50692 102.745C3.82862 102.745 2.72724 103.619 2.72724 104.825C2.72724 106.154 4.21323 106.643 5.17475 106.888L6.43348 107.238C7.7971 107.587 10.0173 108.374 10.0173 110.734C10.0173 112.797 8.35653 114.405 5.41951 114.405C2.69227 114.405 0.99649 112.989 0.856632 110.892H2.465C2.60486 112.308 3.91603 112.972 5.41951 112.972C7.16773 112.972 8.47891 112.08 8.47891 110.699C8.47891 109.475 7.30759 109.003 5.97894 108.619L4.42302 108.199C2.43004 107.622 1.20628 106.608 1.20628 104.895C1.20628 102.762 3.11185 101.346 5.55936 101.346C8.00688 101.346 9.77259 102.78 9.84252 104.703H8.30408ZM12.0767 114.178V101.521H13.5802V108.881H13.755L17.8633 104.685H19.7164L15.713 108.741L20.0136 114.178H18.1081L14.5941 109.703L13.5802 110.629V114.178H12.0767ZM21.3212 114.178V104.685H22.8247V114.178H21.3212ZM22.073 103.112C21.496 103.112 21.024 102.675 21.024 102.115C21.024 101.556 21.496 101.119 22.073 101.119C22.6499 101.119 23.1394 101.556 23.1394 102.115C23.1394 102.675 22.6499 103.112 22.073 103.112ZM26.7197 108.479V114.178H25.2162V104.685H26.6672V106.171H26.7896C27.2441 105.21 28.1182 104.563 29.5693 104.563C31.4923 104.563 32.7685 105.734 32.7685 108.147V114.178H31.2651V108.252C31.2651 106.783 30.4609 105.909 29.1147 105.909C27.7336 105.909 26.7197 106.836 26.7197 108.479ZM40.4186 114.178H38.7753L43.4081 101.521H45.0689L49.7017 114.178H48.0409L46.7822 110.612H41.6948L40.4186 114.178ZM42.1668 109.231H46.2927L44.2822 103.566H44.1773L42.1668 109.231ZM55.0477 117.937C52.7575 117.937 51.2016 116.94 51.0268 115.175H52.6002C52.81 116.136 53.7016 116.626 55.0477 116.626C56.6735 116.626 57.67 115.926 57.67 114.353V112.43H57.5477C57.233 112.954 56.6211 114.038 54.7855 114.038C52.4778 114.038 50.7471 112.29 50.7471 109.301C50.7471 106.381 52.4254 104.563 54.8029 104.563C56.6386 104.563 57.233 105.682 57.5826 106.189H57.705V104.685H59.1735V114.44C59.1735 116.888 57.3554 117.937 55.0477 117.937ZM54.9953 112.692C56.726 112.692 57.705 111.451 57.705 109.353C57.705 107.325 56.761 105.909 54.9953 105.909C53.1771 105.909 52.268 107.448 52.268 109.353C52.268 111.329 53.1946 112.692 54.9953 112.692ZM61.565 114.178V104.685H63.0685V114.178H61.565ZM62.3167 103.112C61.7398 103.112 61.2678 102.675 61.2678 102.115C61.2678 101.556 61.7398 101.119 62.3167 101.119C62.8937 101.119 63.3832 101.556 63.3832 102.115C63.3832 102.675 62.8937 103.112 62.3167 103.112ZM66.9634 108.479V114.178H65.46V104.685H66.911V106.171H67.0334C67.4879 105.21 68.362 104.563 69.8131 104.563C71.7361 104.563 73.0123 105.734 73.0123 108.147V114.178H71.5088V108.252C71.5088 106.783 70.7047 105.909 69.3585 105.909C67.9774 105.909 66.9634 106.836 66.9634 108.479ZM79.2674 117.937C76.9772 117.937 75.4213 116.94 75.2465 115.175H76.8199C77.0297 116.136 77.9213 116.626 79.2674 116.626C80.8932 116.626 81.8897 115.926 81.8897 114.353V112.43H81.7674C81.4527 112.954 80.8408 114.038 79.0052 114.038C76.6975 114.038 74.9667 112.29 74.9667 109.301C74.9667 106.381 76.645 104.563 79.0226 104.563C80.8583 104.563 81.4527 105.682 81.8023 106.189H81.9247V104.685H83.3932V114.44C83.3932 116.888 81.5751 117.937 79.2674 117.937ZM79.2149 112.692C80.9457 112.692 81.9247 111.451 81.9247 109.353C81.9247 107.325 80.9807 105.909 79.2149 105.909C77.3968 105.909 76.4877 107.448 76.4877 109.353C76.4877 111.329 77.4143 112.692 79.2149 112.692ZM90.4664 114.178V101.521H92.0398V112.78H97.9138V114.178H90.4664ZM103.802 114.371C101.057 114.371 99.3613 112.43 99.3613 109.51C99.3613 106.591 101.075 104.563 103.662 104.563C105.655 104.563 107.753 105.787 107.753 109.301V109.93H100.865C100.935 111.94 102.106 113.042 103.802 113.042C104.938 113.042 105.655 112.552 106.005 111.958H107.613C107.158 113.392 105.76 114.371 103.802 114.371ZM100.882 108.654H106.232C106.232 107.063 105.218 105.892 103.662 105.892C102.019 105.892 100.97 107.185 100.882 108.654ZM117.225 104.685L113.711 114.178H112.155L108.658 104.685H110.302L112.889 112.22H112.994L115.581 104.685H117.225ZM122.518 114.371C119.773 114.371 118.078 112.43 118.078 109.51C118.078 106.591 119.791 104.563 122.378 104.563C124.371 104.563 126.469 105.787 126.469 109.301V109.93H119.581C119.651 111.94 120.822 113.042 122.518 113.042C123.654 113.042 124.371 112.552 124.721 111.958H126.329C125.875 113.392 124.476 114.371 122.518 114.371ZM119.599 108.654H124.948C124.948 107.063 123.934 105.892 122.378 105.892C120.735 105.892 119.686 107.185 119.599 108.654ZM129.927 101.521V114.178H128.424V101.521H129.927Z" fill="#BCAB9D"/>
<path d="M18.5352 70.6876C18.5352 71.7813 18.3496 72.753 17.9785 73.6026C17.6074 74.4522 17.1191 75.1651 16.5137 75.7413C15.9082 76.3077 15.2295 76.7374 14.4775 77.0304C13.7354 77.3233 12.998 77.4698 12.2656 77.4698C11.6016 77.4698 10.8936 77.3282 10.1416 77.045C9.39941 76.7618 8.68652 76.2882 8.00293 75.6241C7.31934 74.9503 6.7627 74.047 6.33301 72.9142C5.91309 71.7813 5.70312 70.419 5.70312 68.8272C5.70312 66.7667 6.04004 64.8477 6.71387 63.0704C7.3877 61.2931 8.37402 59.8868 9.67285 58.8517C10.9814 57.8165 12.5293 57.2989 14.3164 57.2989C15.2148 57.2989 15.9473 57.421 16.5137 57.6651C17.0801 57.8995 17.4902 58.1925 17.7441 58.544C17.998 58.8858 18.125 59.2325 18.125 59.5841C18.125 59.9063 17.998 60.214 17.7441 60.5069C17.5 60.7901 17.1729 60.9317 16.7627 60.9317C16.5283 60.9317 16.3184 60.8878 16.1328 60.7999C15.957 60.7022 15.791 60.5704 15.6348 60.4044C15.4883 60.2384 15.3174 60.0235 15.1221 59.7599C14.6045 59.0665 13.9941 58.7198 13.291 58.7198C12.4121 58.7198 11.7236 59.1202 11.2256 59.921C10.7373 60.7218 10.4004 61.6007 10.2148 62.5577C10.0391 63.505 9.90234 64.5157 9.80469 65.5899C10.8984 64.8673 11.9482 64.506 12.9541 64.506C13.8623 64.506 14.7412 64.7208 15.5908 65.1505C16.4502 65.5704 17.1533 66.2491 17.7002 67.1866C18.2568 68.1241 18.5352 69.2911 18.5352 70.6876ZM14.6387 70.4825C14.6387 69.7306 14.5898 69.0323 14.4922 68.3878C14.4043 67.7335 14.1699 67.1573 13.7891 66.6593C13.418 66.1612 12.8711 65.9122 12.1484 65.9122C10.3711 65.9122 9.48242 67.6456 9.48242 71.1124C9.48242 71.7374 9.50684 72.3185 9.55566 72.8556C9.61426 73.3927 9.74121 73.9151 9.93652 74.4229C10.1318 74.921 10.4102 75.3165 10.7715 75.6095C11.1328 75.9024 11.6016 76.0489 12.1777 76.0489C12.7637 76.0489 13.2275 75.9122 13.5693 75.6388C13.9111 75.3556 14.1602 74.9601 14.3164 74.4522C14.4727 73.9444 14.5654 73.4073 14.5947 72.8409C14.624 72.2647 14.6387 71.4786 14.6387 70.4825ZM33.7489 67.5675C33.7489 68.9737 33.661 70.1602 33.4852 71.127C33.3192 72.0841 33.0702 72.8995 32.7381 73.5733C32.4159 74.2374 32.0204 74.8331 31.5516 75.3604C30.3016 76.7667 28.8221 77.4698 27.1131 77.4698C26.3807 77.4698 25.6288 77.3136 24.8573 77.0011C24.0858 76.6886 23.368 76.171 22.704 75.4483C22.0399 74.7159 21.5028 73.7247 21.0926 72.4747C20.6825 71.2149 20.4774 69.6964 20.4774 67.919C20.4774 66.3175 20.5653 64.9796 20.7411 63.9054C20.9266 62.8214 21.1415 62.0108 21.3856 61.4737C21.6297 60.9366 21.9374 60.3995 22.3085 59.8624C23.5292 58.1534 25.1307 57.2989 27.1131 57.2989C29.1444 57.2989 30.746 58.1534 31.9178 59.8624C32.4549 60.5948 32.8944 61.5226 33.2362 62.6456C33.578 63.7686 33.7489 65.4093 33.7489 67.5675ZM29.8085 67.3917V65.4581C29.8085 64.0128 29.7499 62.8311 29.6327 61.9132C29.5253 60.9952 29.2713 60.2335 28.871 59.628C28.4803 59.0226 27.8944 58.7198 27.1131 58.7198C26.2831 58.7198 25.6727 59.047 25.2821 59.7013C24.9012 60.3556 24.662 61.2638 24.5643 62.4259C24.4667 63.588 24.4178 65.2433 24.4178 67.3917C24.4178 69.4718 24.4667 71.0977 24.5643 72.2696C24.662 73.4317 24.9012 74.3546 25.2821 75.0382C25.6727 75.712 26.2831 76.0489 27.1131 76.0489C27.7284 76.0489 28.2264 75.8536 28.6073 75.463C28.9881 75.0626 29.2616 74.5206 29.4276 73.837C29.5936 73.1534 29.6961 72.4308 29.7352 71.669C29.784 70.9073 29.8085 69.8624 29.8085 68.5343V67.3917ZM58.0007 72.1231C58.0007 73.4903 57.781 74.5548 57.3415 75.3165C56.9021 76.0782 56.3796 76.5909 55.7741 76.8546C55.1784 77.1183 54.5632 77.2501 53.9284 77.2501C53.323 77.2501 52.7126 77.1134 52.0974 76.8399C51.4821 76.5567 50.9499 76.0489 50.5007 75.3165C50.0612 74.5743 49.8415 73.5685 49.8415 72.2989C49.8415 71.7716 49.8708 71.2393 49.9294 70.7022C49.9978 70.1651 50.1589 69.589 50.4128 68.9737C50.6765 68.3585 51.0866 67.8409 51.6433 67.421C52.2097 67.0011 52.9714 66.7911 53.9284 66.7911C55.6667 66.7911 56.78 67.3819 57.2683 68.5636C57.7566 69.7452 58.0007 70.9317 58.0007 72.1231ZM53.2107 57.0645L42.5905 77.8507H40.8767L51.4968 57.0645H53.2107ZM44.6853 62.6456C44.6853 64.0128 44.4655 65.0772 44.0261 65.839C43.5866 66.6007 43.0642 67.1134 42.4587 67.377C41.863 67.6407 41.2478 67.7726 40.613 67.7726C39.9978 67.7726 39.3825 67.6358 38.7673 67.3624C38.1618 67.0792 37.6345 66.5714 37.1853 65.839C36.7458 65.0968 36.5261 64.0909 36.5261 62.8214C36.5261 61.5128 36.7702 60.2677 37.2585 59.086C37.7468 57.8946 38.865 57.2989 40.613 57.2989C42.3513 57.2989 43.4646 57.8946 43.9528 59.086C44.4411 60.2677 44.6853 61.4542 44.6853 62.6456ZM55.364 72.0645C55.364 70.9903 55.3249 70.1358 55.2468 69.5011C55.1784 68.8565 55.0417 68.3927 54.8366 68.1095C54.6413 67.8263 54.3386 67.6847 53.9284 67.6847C53.5671 67.6847 53.279 67.8116 53.0642 68.0655C52.8591 68.3194 52.7126 68.7638 52.6247 69.3985C52.5368 70.0235 52.4929 70.8927 52.4929 72.006C52.4929 73.5001 52.5759 74.5987 52.7419 75.3018C52.9079 76.005 53.3034 76.3565 53.9284 76.3565C54.3484 76.3565 54.6609 76.1954 54.8659 75.8731C55.0808 75.5411 55.2175 75.0772 55.2761 74.4815C55.3347 73.8858 55.364 73.0802 55.364 72.0645ZM42.0485 62.587C42.0485 61.5128 42.0095 60.6583 41.9314 60.0235C41.863 59.379 41.7263 58.9151 41.5212 58.6319C41.3259 58.3487 41.0232 58.2071 40.613 58.2071C40.2517 58.2071 39.9636 58.3341 39.7487 58.588C39.5437 58.8321 39.3923 59.2667 39.2946 59.8917C39.2068 60.5069 39.1628 61.3858 39.1628 62.5284C39.1628 63.5538 39.1872 64.3546 39.236 64.9308C39.2946 65.4972 39.4265 65.9659 39.6316 66.337C39.8464 66.6983 40.1735 66.879 40.613 66.879C41.0329 66.879 41.3454 66.7179 41.5505 66.3956C41.7653 66.0636 41.9021 65.5997 41.9607 65.004C42.0193 64.4083 42.0485 63.6026 42.0485 62.587Z" fill="#BCAB9D" fill-opacity="0.65"/>
<rect x="74" width="46" height="82.4083" fill="#D1C2B6"/>
<path d="M0 82.5643L136.285 82.5643" stroke="#BCAB9D" stroke-width="2.30992"/>
</svg>
