<svg width="95" height="132" viewBox="0 0 95 132" fill="none" xmlns="http://www.w3.org/2000/svg">
<path d="M17.5785 116.525C17.4386 115.283 16.3023 114.567 14.7813 114.567C13.103 114.567 12.0016 115.441 12.0016 116.647C12.0016 117.976 13.4876 118.465 14.4492 118.71L15.7079 119.06C17.0715 119.409 19.2918 120.196 19.2918 122.556C19.2918 124.619 17.6309 126.227 14.6939 126.227C11.9667 126.227 10.2709 124.811 10.131 122.713H11.7394C11.8793 124.129 13.1904 124.794 14.6939 124.794C16.4421 124.794 17.7533 123.902 17.7533 122.521C17.7533 121.297 16.582 120.825 15.2534 120.441L13.6974 120.021C11.7045 119.444 10.4807 118.43 10.4807 116.717C10.4807 114.584 12.3863 113.168 14.8338 113.168C17.2813 113.168 19.047 114.602 19.1169 116.525H17.5785ZM21.3511 126V113.343H22.8546V120.703H23.0294L27.1377 116.507H28.9908L24.9874 120.563L29.288 126H27.3825L23.8685 121.525L22.8546 122.451V126H21.3511ZM30.5956 126V116.507H32.0991V126H30.5956ZM31.3474 114.934C30.7705 114.934 30.2984 114.497 30.2984 113.937C30.2984 113.378 30.7705 112.941 31.3474 112.941C31.9243 112.941 32.4138 113.378 32.4138 113.937C32.4138 114.497 31.9243 114.934 31.3474 114.934ZM35.9941 120.301V126H34.4906V116.507H35.9416V117.993H36.064C36.5185 117.032 37.3927 116.385 38.8437 116.385C40.7667 116.385 42.0429 117.556 42.0429 119.969V126H40.5395V120.074C40.5395 118.605 39.7353 117.731 38.3892 117.731C37.0081 117.731 35.9941 118.657 35.9941 120.301ZM49.693 126H48.0497L52.6825 113.343H54.3433L58.9761 126H57.3153L56.0566 122.434H50.9692L49.693 126ZM51.4413 121.053H55.5671L53.5566 115.388H53.4517L51.4413 121.053ZM64.3221 129.759C62.0319 129.759 60.476 128.762 60.3012 126.996H61.8746C62.0844 127.958 62.976 128.448 64.3221 128.448C65.948 128.448 66.9445 127.748 66.9445 126.175V124.252H66.8221C66.5074 124.776 65.8955 125.86 64.0599 125.86C61.7522 125.86 60.0215 124.112 60.0215 121.122C60.0215 118.203 61.6998 116.385 64.0774 116.385C65.913 116.385 66.5074 117.504 66.857 118.011H66.9794V116.507H68.4479V126.262C68.4479 128.71 66.6298 129.759 64.3221 129.759ZM64.2697 124.514C66.0004 124.514 66.9794 123.273 66.9794 121.175C66.9794 119.147 66.0354 117.731 64.2697 117.731C62.4515 117.731 61.5424 119.269 61.5424 121.175C61.5424 123.15 62.469 124.514 64.2697 124.514ZM74.8254 126.192C72.0807 126.192 70.3849 124.252 70.3849 121.332C70.3849 118.413 72.0981 116.385 74.6855 116.385C76.6785 116.385 78.7764 117.609 78.7764 121.122V121.752H71.8884C71.9583 123.762 73.1296 124.864 74.8254 124.864C75.9617 124.864 76.6785 124.374 77.0281 123.78H78.6365C78.182 125.213 76.7834 126.192 74.8254 126.192ZM71.9058 120.476H77.2554C77.2554 118.885 76.2414 117.713 74.6855 117.713C73.0422 117.713 71.9932 119.007 71.9058 120.476Z" fill="#BCAB9D"/>
<path d="M54.4981 49.3745C54.4981 50.5984 54.2411 51.7428 53.7271 52.8077C53.2252 53.8725 52.5092 54.815 51.579 55.635C50.661 56.4551 49.6023 57.0915 48.4028 57.5444C47.2034 57.9972 45.9304 58.2237 44.5841 58.2237C43.3724 58.2237 42.2953 58.0646 41.3528 57.7463C40.4104 57.4281 39.6699 56.9814 39.1313 56.4061C38.605 55.8186 38.3419 55.1699 38.3419 54.46C38.3419 53.8236 38.5316 53.3278 38.911 52.9729C39.2905 52.6057 39.725 52.4221 40.2146 52.4221C40.8143 52.4221 41.2733 52.6118 41.5915 52.9913C41.922 53.3584 42.2647 53.9215 42.6196 54.6803C42.9379 55.3168 43.2622 55.7696 43.5927 56.0389C43.9231 56.3082 44.376 56.4428 44.9513 56.4428C46.9218 56.4428 48.1886 55.7758 48.7517 54.4417C49.3269 53.0953 49.6146 51.7245 49.6146 50.3292C49.6146 48.5667 49.4493 47.257 49.1188 46.4002C48.8006 45.5312 48.2009 45.0967 47.3196 45.0967C46.7444 45.0967 46.1201 45.3721 45.447 45.9229C44.7493 46.5226 44.2475 46.8225 43.9415 46.8225C43.709 46.8225 43.5009 46.743 43.3173 46.5838C43.1337 46.4247 43.0419 46.2044 43.0419 45.9229C43.0419 45.6414 43.1337 45.3905 43.3173 45.1702C43.5009 44.9499 43.7701 44.7234 44.1251 44.4909C45.6183 43.4872 46.6954 42.71 47.3563 42.1592C48.0295 41.6084 48.5436 41.0087 48.8985 40.36C49.2535 39.7113 49.431 38.9341 49.431 38.0284C49.431 36.9513 49.0882 36.1312 48.4028 35.5682C47.7297 35.0052 46.9157 34.7237 45.961 34.7237C45.398 34.7237 44.8472 34.8522 44.3087 35.1092C43.7824 35.354 43.3601 35.6906 43.0419 36.119C42.7359 36.5474 42.5829 36.9941 42.5829 37.4592C42.5829 38.0834 42.7971 38.6587 43.2255 39.185C43.4213 39.442 43.5192 39.595 43.5192 39.644C43.5192 39.7297 43.458 39.8092 43.3356 39.8827C43.2132 39.9561 43.0909 40.0295 42.9685 40.103L41.4263 40.7639C41.1325 40.923 40.8938 41.0026 40.7103 41.0026C40.4165 41.0026 40.1166 40.7211 39.8106 40.1581C39.5047 39.595 39.3517 39.0075 39.3517 38.3956C39.3517 37.7469 39.5781 37.0064 40.031 36.1741C40.4838 35.3295 41.2978 34.5829 42.4728 33.9342C43.6478 33.2733 45.2511 32.9428 47.2829 32.9428C48.5436 32.9428 49.6635 33.1019 50.6427 33.4202C51.6218 33.7262 52.3929 34.2096 52.956 34.8706C53.5312 35.5193 53.8188 36.3209 53.8188 37.2756C53.8188 37.9978 53.6536 38.6771 53.3231 39.3135C52.9927 39.95 52.5888 40.5008 52.1114 40.9659C51.6341 41.431 51.1751 41.8226 50.7345 42.1409C50.2938 42.4469 49.7431 42.8079 49.0821 43.2241C50.8446 43.2975 52.1604 43.8972 53.0294 45.0233C53.47 45.5618 53.825 46.1493 54.0942 46.7858C54.3635 47.4222 54.4981 48.2851 54.4981 49.3745ZM73.2539 49.503C73.2539 50.9472 72.8684 52.3426 72.0973 53.6889C71.3262 55.0353 70.1879 56.1307 68.6824 56.9752C67.1892 57.8075 65.4083 58.2237 63.3398 58.2237C62.0424 58.2237 60.947 58.0462 60.0535 57.6913C59.16 57.3486 58.4868 56.8957 58.034 56.3327C57.5811 55.7574 57.3547 55.1821 57.3547 54.6069C57.3547 53.9949 57.5444 53.5114 57.9238 53.1565C58.3155 52.8015 58.7378 52.6241 59.1906 52.6241C59.6312 52.6241 59.9617 52.7342 60.182 52.9545C60.4023 53.1626 60.6349 53.4992 60.8797 53.9643C61.406 54.8945 61.9445 55.5432 62.4953 55.9104C63.0583 56.2653 63.6887 56.4428 64.3863 56.4428C65.5858 56.4428 66.4793 56.1001 67.0668 55.4147C67.6543 54.717 68.0154 53.9459 68.15 53.1014C68.2969 52.2446 68.3703 51.2961 68.3703 50.2557C68.3703 48.0526 68.101 46.3329 67.5625 45.0967C67.024 43.8483 66.0509 43.2241 64.6434 43.2241C64.0926 43.2241 63.5112 43.4015 62.8992 43.7565C62.2995 44.1114 61.8038 44.7846 61.4121 45.776H59.466L59.7965 33.512H71.0691L70.2797 35.1276C69.9492 35.8252 69.6799 36.2475 69.4719 36.3944C69.2638 36.529 68.9089 36.5963 68.407 36.5963H61.4121L61.2652 43.1874C61.7671 42.7712 62.1832 42.4591 62.5137 42.251C62.8564 42.0307 63.2909 41.841 63.8172 41.6819C64.3557 41.5228 64.9983 41.4432 65.7449 41.4432C66.871 41.4432 67.9113 41.6758 68.866 42.1409C69.8207 42.606 70.6163 43.218 71.2527 43.9768C71.9014 44.7357 72.3971 45.5924 72.7398 46.5471C73.0825 47.4896 73.2539 48.4749 73.2539 49.503Z" fill="#BCAB9D" fill-opacity="0.65"/>
<path d="M75.0186 84.9376C68.7797 89.5001 61.5119 92.4537 53.8589 93.5365C46.206 94.6193 38.4041 93.798 31.1443 91.1454C23.8845 88.4928 17.391 84.0907 12.2389 78.3291C7.08681 72.5675 3.43516 65.6242 1.60742 58.1142C-0.220323 50.6042 -0.167737 42.7594 1.76052 35.2746C3.68877 27.7898 7.43318 20.896 12.6621 15.204C17.8909 9.51198 24.4429 5.19734 31.7376 2.64229C39.0322 0.0872414 46.8444 -0.629356 54.4822 0.555973L51.8074 17.7915C47.004 17.046 42.0909 17.4967 37.5033 19.1035C32.9157 20.7104 28.7952 23.4239 25.5068 27.0036C22.2184 30.5833 19.8635 34.9187 18.6508 39.6259C17.4382 44.3331 17.4051 49.2667 18.5546 53.9897C19.704 58.7127 22.0005 63.0793 25.2407 66.7028C28.4808 70.3263 32.5646 73.0947 37.1302 74.763C41.6959 76.4312 46.6025 76.9477 51.4154 76.2667C56.2283 75.5857 60.799 73.7282 64.7227 70.8589L75.0186 84.9376Z" fill="#D1C2B6"/>
</svg>
